<svg xmlns="http://www.w3.org/2000/svg" width="15.531" height="15.531" viewBox="0 0 15.531 15.531"><defs><style>.a{fill:#2d3178;}</style></defs><path class="a" d="M571.622,138.5c2.073,0,2.319.008,3.138.045a4.3,4.3,0,0,1,1.442.268,2.566,2.566,0,0,1,1.474,1.474,4.3,4.3,0,0,1,.268,1.442c.037.819.045,1.065.045,3.138s-.008,2.319-.045,3.138a4.3,4.3,0,0,1-.268,1.442,2.566,2.566,0,0,1-1.474,1.474,4.288,4.288,0,0,1-1.442.267c-.819.037-1.064.045-3.138.045s-2.319-.008-3.138-.045a4.293,4.293,0,0,1-1.442-.267,2.567,2.567,0,0,1-1.474-1.474A4.289,4.289,0,0,1,565.3,148c-.037-.819-.045-1.064-.045-3.138s.008-2.319.045-3.138a4.288,4.288,0,0,1,.267-1.442,2.567,2.567,0,0,1,1.474-1.474,4.307,4.307,0,0,1,1.442-.268c.819-.037,1.064-.045,3.138-.045m0-1.4c-2.109,0-2.373.01-3.2.047a5.705,5.705,0,0,0-1.885.361,3.971,3.971,0,0,0-2.271,2.271,5.686,5.686,0,0,0-.361,1.885c-.038.828-.047,1.092-.047,3.2s.009,2.373.047,3.2a5.686,5.686,0,0,0,.361,1.885,3.971,3.971,0,0,0,2.271,2.271,5.725,5.725,0,0,0,1.885.361c.828.037,1.092.046,3.2.046s2.373-.009,3.2-.046a5.724,5.724,0,0,0,1.885-.361,3.975,3.975,0,0,0,2.271-2.271,5.705,5.705,0,0,0,.361-1.885c.038-.828.047-1.092.047-3.2s-.009-2.373-.047-3.2a5.7,5.7,0,0,0-.361-1.885,3.975,3.975,0,0,0-2.271-2.271,5.705,5.705,0,0,0-1.885-.361c-.828-.037-1.093-.047-3.2-.047" transform="translate(-563.857 -137.101)"/><path class="a" d="M572.92,142.178a3.987,3.987,0,1,0,3.987,3.987,3.988,3.988,0,0,0-3.987-3.987m0,6.576a2.588,2.588,0,1,1,2.588-2.588,2.588,2.588,0,0,1-2.588,2.588" transform="translate(-565.155 -138.4)"/><path class="a" d="M580.472,141.646a.932.932,0,1,1-.932-.932.932.932,0,0,1,.932.932" transform="translate(-567.631 -138.025)"/></svg>