<svg xmlns="http://www.w3.org/2000/svg" width="17.235" height="15.006" viewBox="0 0 17.235 15.006"><defs><style>.a{fill:#2d3178;}</style></defs><path class="a" d="M65.225,58.062l-16.3,6.287a.468.468,0,0,0,0,.875L52.9,66.707,54.44,71.65a.468.468,0,0,0,.743.224l2.214-1.8a.66.66,0,0,1,.8-.023l3.993,2.9a.468.468,0,0,0,.733-.284l2.925-14.069A.468.468,0,0,0,65.225,58.062Zm-3.108,3.29-6.405,5.954a1.327,1.327,0,0,0-.412.795l-.218,1.617a.2.2,0,0,1-.392.028L53.851,66.8a.781.781,0,0,1,.342-.879l7.761-4.781A.135.135,0,0,1,62.117,61.352Z" transform="translate(-48.627 -58.03)"/></svg>