<svg xmlns="http://www.w3.org/2000/svg" width="158.829" height="25.233" viewBox="0 0 158.829 25.233"><defs><style>.a{fill:#1a1818;}.b{fill:#2784c3;}.b,.c{fill-rule:evenodd;}.c{fill:#babcbf;}</style></defs><g transform="translate(-387.656 -1369.92)"><path class="a" d="M473.236,1374.735a4.178,4.178,0,0,0-2.638.817,3.075,3.075,0,0,0-1.133,2.533,2.618,2.618,0,0,0,.76,1.827,4.3,4.3,0,0,0,2.436,1.154q.931.16,2.545.369a6.97,6.97,0,0,1,4.7,2.356,6.762,6.762,0,0,1,1.505,4.36q-.171,6.7-7.937,6.8a12.607,12.607,0,0,1-8.634-3.187l2.248-2.662a9.736,9.736,0,0,0,6.428,2.327q4.409-.064,4.471-3.254.032-2.613-2.948-3.142-1.366-.192-2.995-.433a7.308,7.308,0,0,1-4.438-2.228,6.317,6.317,0,0,1-1.567-4.328,6.506,6.506,0,0,1,1.968-4.937,7.533,7.533,0,0,1,5.409-1.892,12.451,12.451,0,0,1,7.331,2.412l-1.909,2.908a10.141,10.141,0,0,0-5.6-1.8Zm22.489.979a4.4,4.4,0,0,0-2.8-.979,4.624,4.624,0,0,0-2.082.5,4.362,4.362,0,0,0-1.429,1.2,3.931,3.931,0,0,0-.886,1.942,28.879,28.879,0,0,0-.248,4.7,28.151,28.151,0,0,0,.249,4.67,3.949,3.949,0,0,0,.886,1.974,4.044,4.044,0,0,0,1.43,1.172,3.932,3.932,0,0,0,2.083.529q2.891,0,4.321-3.194h3.632a8.81,8.81,0,0,1-2.84,4.989,7.922,7.922,0,0,1-5.106,1.727,8.134,8.134,0,0,1-7.086-4.2q-.248-.529-.45-1.009a6.753,6.753,0,0,1-.31-1.25,63.448,63.448,0,0,1,0-10.858,6.571,6.571,0,0,1,.76-2.227,7.961,7.961,0,0,1,2.637-2.883,8.156,8.156,0,0,1,9.788.686,8.875,8.875,0,0,1,2.606,4.909h-3.635a5.174,5.174,0,0,0-1.523-2.407Zm23.315,12.78a5.517,5.517,0,0,1-.791,2.258,7.52,7.52,0,0,1-2.574,2.851,7.885,7.885,0,0,1-4.5,1.346,8.135,8.135,0,0,1-7.086-4.2q-.248-.529-.449-1.009a6.711,6.711,0,0,1-.31-1.25,63.635,63.635,0,0,1,0-10.87,6.6,6.6,0,0,1,.76-2.231,7.944,7.944,0,0,1,2.636-2.872,7.618,7.618,0,0,1,4.45-1.309,7.771,7.771,0,0,1,7.071,4.2,5.483,5.483,0,0,1,.79,2.227,73.273,73.273,0,0,1,0,10.858Zm-3.456-10.116a4.9,4.9,0,0,0-2.284-3.146,4.864,4.864,0,0,0-2.129-.5,4.622,4.622,0,0,0-2.082.5,4.36,4.36,0,0,0-1.43,1.2,3.931,3.931,0,0,0-.886,1.942,28.885,28.885,0,0,0-.248,4.7,28.219,28.219,0,0,0,.248,4.67,3.954,3.954,0,0,0,.886,1.974,4.043,4.043,0,0,0,1.43,1.172,3.929,3.929,0,0,0,2.082.529,4.127,4.127,0,0,0,2.129-.529,3.824,3.824,0,0,0,1.367-1.172,4.167,4.167,0,0,0,.917-1.974,30.09,30.09,0,0,0,.233-4.67,30.8,30.8,0,0,0-.233-4.7Zm24.038,9.956a6.011,6.011,0,0,1-.372,1.345,12.55,12.55,0,0,1-.636,1.2,7.983,7.983,0,0,1-2.762,2.722,7.652,7.652,0,0,1-4.3,1.154h-7.681v-23.352h7.914a7.555,7.555,0,0,1,6.89,3.94,7.173,7.173,0,0,1,1.039,2.755,49.219,49.219,0,0,1,.17,4.981,34.992,34.992,0,0,1-.264,5.253Zm-3.3-9.49a4.094,4.094,0,0,0-.885-2.135,4.5,4.5,0,0,0-4.039-1.974h-4.1v16.691h4.1a4.609,4.609,0,0,0,4.194-2.038,3.969,3.969,0,0,0,.73-1.91,42.252,42.252,0,0,0,.14-4.269q0-3.049-.14-4.366Zm8.212,15.913v-23.352h3.425v23.352Zm22.171,0-10.227-16.6h-.062v16.6h-3.425v-23.352h3.228l10.244,16.6h.062v-16.6h3.425v23.352Zm16.057-9.515v-3.329H590.8v4.75a8.39,8.39,0,0,1-2.326,5.87,7.868,7.868,0,0,1-5.737,2.415,8.134,8.134,0,0,1-7.086-4.2q-.248-.529-.45-1.009a6.706,6.706,0,0,1-.31-1.25,63.61,63.61,0,0,1,0-10.858,6.59,6.59,0,0,1,.76-2.227,7.961,7.961,0,0,1,2.636-2.883,8.145,8.145,0,0,1,9.784.688,8.894,8.894,0,0,1,2.6,4.916h-3.633a5.184,5.184,0,0,0-1.522-2.414,4.386,4.386,0,0,0-2.8-.982,4.617,4.617,0,0,0-2.081.5,4.354,4.354,0,0,0-1.428,1.2,3.926,3.926,0,0,0-.885,1.942,28.869,28.869,0,0,0-.248,4.7,28.209,28.209,0,0,0,.248,4.67,3.956,3.956,0,0,0,.886,1.974,4.043,4.043,0,0,0,1.43,1.172,3.928,3.928,0,0,0,2.082.529,4.31,4.31,0,0,0,3.31-1.413,5,5,0,0,0,1.336-3.551v-1.221Z" transform="translate(-44.316 -0.742)"/><g transform="translate(390.625 1369.92)"><path class="b" d="M431.819,1369.92h3.265a.594.594,0,0,1,.594.594v3.266a.593.593,0,0,1-.594.593h-3.265a.594.594,0,0,1-.594-.593v-3.266a.594.594,0,0,1,.594-.594Z" transform="translate(-415.64 -1369.92)"/><path class="b" d="M419.62,1369.92h3.265a.594.594,0,0,1,.594.594v3.266a.594.594,0,0,1-.594.593H419.62a.593.593,0,0,1-.594-.593v-3.266a.594.594,0,0,1,.594-.594Z" transform="translate(-408.636 -1369.92)"/><path class="b" d="M403.935,1369.92H407.2a.594.594,0,0,1,.594.594v3.266a.594.594,0,0,1-.594.593h-3.265a.593.593,0,0,1-.594-.593v-3.266a.594.594,0,0,1,.594-.594Z" transform="translate(-399.63 -1369.92)"/><path class="b" d="M407.42,1382.12h3.265a.594.594,0,0,1,.594.594v3.265a.594.594,0,0,1-.594.594H407.42a.594.594,0,0,1-.594-.594v-3.265a.594.594,0,0,1,.594-.594Z" transform="translate(-401.631 -1376.925)"/><path class="b" d="M407.42,1394.319h3.265a.594.594,0,0,1,.594.594v3.265a.594.594,0,0,1-.594.594H407.42a.594.594,0,0,1-.594-.594v-3.265a.594.594,0,0,1,.594-.594Z" transform="translate(-401.631 -1383.929)"/><path class="b" d="M419.62,1394.319h3.265a.594.594,0,0,1,.594.594v3.265a.594.594,0,0,1-.594.594H419.62a.594.594,0,0,1-.594-.594v-3.265a.594.594,0,0,1,.594-.594Z" transform="translate(-408.636 -1383.929)"/><path class="b" d="M431.819,1394.319h3.265a.594.594,0,0,1,.594.594v3.265a.594.594,0,0,1-.594.594h-3.265a.594.594,0,0,1-.594-.594v-3.265a.594.594,0,0,1,.594-.594Z" transform="translate(-415.64 -1383.929)"/><path class="b" d="M431.819,1406.519h3.265a.594.594,0,0,1,.594.594v3.265a.594.594,0,0,1-.594.594h-3.265a.594.594,0,0,1-.594-.594v-3.265a.594.594,0,0,1,.594-.594Z" transform="translate(-415.64 -1390.934)"/><path class="b" d="M431.819,1418.718h3.265a.594.594,0,0,1,.594.594v3.265a.594.594,0,0,1-.594.594h-3.265a.594.594,0,0,1-.594-.594v-3.265a.594.594,0,0,1,.594-.594Z" transform="translate(-415.64 -1397.938)"/><path class="b" d="M419.446,1418.718h3.265a.594.594,0,0,1,.594.594v3.265a.594.594,0,0,1-.594.594h-3.265a.594.594,0,0,1-.594-.594v-3.265a.594.594,0,0,1,.594-.594Z" transform="translate(-408.536 -1397.938)"/><path class="b" d="M407.42,1418.718h3.265a.594.594,0,0,1,.594.594v3.265a.594.594,0,0,1-.594.594H407.42a.594.594,0,0,1-.594-.594v-3.265a.594.594,0,0,1,.594-.594Z" transform="translate(-401.631 -1397.938)"/><path class="b" d="M395.221,1418.718h3.265a.594.594,0,0,1,.594.594v3.265a.594.594,0,0,1-.594.594h-3.265a.594.594,0,0,1-.594-.594v-3.265a.594.594,0,0,1,.594-.594Z" transform="translate(-394.627 -1397.938)"/></g><g transform="translate(387.656 1369.92)"><path class="c" d="M444.019,1369.92h3.265a.594.594,0,0,1,.594.594v3.266a.594.594,0,0,1-.594.593h-3.265a.593.593,0,0,1-.594-.593v-3.266a.594.594,0,0,1,.594-.594Z" transform="translate(-419.676 -1369.92)"/><path class="c" d="M444.019,1382.12h3.265a.594.594,0,0,1,.594.594v3.265a.594.594,0,0,1-.594.594h-3.265a.594.594,0,0,1-.594-.594v-3.265a.594.594,0,0,1,.594-.594Z" transform="translate(-419.676 -1376.925)"/><path class="c" d="M431.819,1382.12h3.265a.594.594,0,0,1,.594.594v3.265a.594.594,0,0,1-.594.594h-3.265a.594.594,0,0,1-.594-.594v-3.265a.594.594,0,0,1,.594-.594Z" transform="translate(-412.671 -1376.925)"/><path class="c" d="M419.62,1382.12h3.265a.594.594,0,0,1,.594.594v3.265a.594.594,0,0,1-.594.594H419.62a.594.594,0,0,1-.594-.594v-3.265a.594.594,0,0,1,.594-.594Z" transform="translate(-405.667 -1376.925)"/><path class="c" d="M419.62,1406.519h3.265a.594.594,0,0,1,.594.594v3.265a.594.594,0,0,1-.594.594H419.62a.594.594,0,0,1-.594-.594v-3.265a.594.594,0,0,1,.594-.594Z" transform="translate(-405.667 -1390.934)"/><path class="c" d="M407.42,1406.519h3.265a.594.594,0,0,1,.594.594v3.265a.594.594,0,0,1-.594.594H407.42a.594.594,0,0,1-.594-.594v-3.265a.594.594,0,0,1,.594-.594Z" transform="translate(-398.663 -1390.934)"/><path class="c" d="M395.221,1406.519h3.265a.594.594,0,0,1,.594.594v3.265a.594.594,0,0,1-.594.594h-3.265a.594.594,0,0,1-.594-.594v-3.265a.594.594,0,0,1,.594-.594Z" transform="translate(-391.658 -1390.934)"/><path class="c" d="M393.478,1394.494h3.266a.594.594,0,0,1,.594.594v3.265a.593.593,0,0,1-.594.594h-3.266a.593.593,0,0,1-.594-.594v-3.265a.594.594,0,0,1,.594-.594Z" transform="translate(-390.658 -1384.029)"/><path class="c" d="M444.019,1394.319h3.265a.594.594,0,0,1,.594.594v3.265a.594.594,0,0,1-.594.594h-3.265a.594.594,0,0,1-.594-.594v-3.265a.594.594,0,0,1,.594-.594Z" transform="translate(-419.676 -1383.929)"/><path class="c" d="M444.019,1406.519h3.265a.594.594,0,0,1,.594.594v3.265a.594.594,0,0,1-.594.594h-3.265a.594.594,0,0,1-.594-.594v-3.265a.594.594,0,0,1,.594-.594Z" transform="translate(-419.676 -1390.934)"/><path class="c" d="M393.478,1382.12h3.266a.594.594,0,0,1,.594.594v3.265a.594.594,0,0,1-.594.594h-3.266a.594.594,0,0,1-.594-.594v-3.265a.594.594,0,0,1,.594-.594Z" transform="translate(-390.658 -1376.925)"/><path class="c" d="M388.25,1369.92h3.265a.594.594,0,0,1,.594.594v3.266a.594.594,0,0,1-.594.593H388.25a.593.593,0,0,1-.594-.593v-3.266a.594.594,0,0,1,.594-.594Z" transform="translate(-387.656 -1369.92)"/><path class="c" d="M444.019,1418.718h3.265a.594.594,0,0,1,.594.594v3.265a.594.594,0,0,1-.594.594h-3.265a.594.594,0,0,1-.594-.594v-3.265a.594.594,0,0,1,.594-.594Z" transform="translate(-419.676 -1397.938)"/></g></g></svg>