<svg xmlns="http://www.w3.org/2000/svg" width="41.059" height="53.508" viewBox="0 0 41.059 53.508"><defs><style>.a,.b,.c{fill:none;}.a,.c{stroke:#f55448;stroke-miterlimit:10;}.a{stroke-width:5px;}.b{stroke:#2d3178;stroke-linejoin:round;}.b,.c{stroke-linecap:square;stroke-width:3px;}</style></defs><g transform="translate(-373.389 -374.345)"><path class="a" d="M404.412,398.985a10.915,10.915,0,1,0-20.019-1.947"/><path class="b" d="M398.232,411.547l2.752-2.752a5.693,5.693,0,0,1,8.028,0l.084.084a.079.079,0,0,1,0,.112l-14.262,14.262"/><path class="b" d="M397.336,417.183"/><path class="b" d="M397.336,414.175V393.532A2.931,2.931,0,0,0,394,390.661a2.984,2.984,0,0,0-2.542,2.98v11.8a7.234,7.234,0,0,0-8.466-1.877l-4.188,1.907a6.6,6.6,0,0,0-3.279,8.782l2.626,5.608a9.889,9.889,0,0,0,9.284,6.495,10.091,10.091,0,0,0,7.16-2.914"/><path class="c" d="M410.829,402.312a18.034,18.034,0,1,0-33.186-3.008"/></g></svg>