<svg xmlns="http://www.w3.org/2000/svg" width="18.724" height="26.533" viewBox="0 0 18.724 26.533"><defs><style>.a{fill:#2d3178;}.b{fill:#f55448;}.c{fill:none;stroke:#f55448;stroke-width:2px;}</style></defs><g transform="translate(-1223.594 -33)"><path class="a" d="M17.457,13.23l-1.444,1.444,0,0-2.78,2.78A63.706,63.706,0,0,1,0,4.22L2.78,1.44l0,0L4.227,0l4,4L6.376,5.859A63.275,63.275,0,0,0,11.6,11.081l1.855-1.855Z" transform="translate(1224.594 42.077)"/><path class="b" d="M809.131,52.138l-3.706,4.528-3.707-4.528Z" transform="translate(433.187 -11.584)"/><path class="c" d="M0,0A7.226,7.226,0,0,1,7.226,7.226,7.226,7.226,0,0,1,0,14.453" transform="translate(1224.594 41.226) rotate(-90)"/></g></svg>